<mxfile host="app.diagrams.net" modified="2024-03-13T02:18:36.184Z" agent="Mozilla/5.0 (Windows NT 10.0; Win64; x64) AppleWebKit/537.36 (KHTML, like Gecko) Chrome/122.0.0.0 Safari/537.36 Edg/122.0.0.0" version="24.0.5" etag="HbszZp5yvuP2PBGgf7aB" type="github">
  <diagram name="第 1 页" id="cVhQx0nqhfKWyaJ2dOzK">
    <mxGraphModel>
      <root>
        <mxCell id="0" />
        <mxCell id="1" parent="0" />
      </root>
    </mxGraphModel>
  </diagram>
</mxfile>
